<?xml version="1.0" encoding="UTF-8" standalone="no"?>
<!-- Created with Inkscape (http://www.inkscape.org/) -->

<svg
   xmlns:dc="http://purl.org/dc/elements/1.1/"
   xmlns:cc="http://creativecommons.org/ns#"
   xmlns:rdf="http://www.w3.org/1999/02/22-rdf-syntax-ns#"
   xmlns:svg="http://www.w3.org/2000/svg"
   xmlns="http://www.w3.org/2000/svg"
   xmlns:sodipodi="http://sodipodi.sourceforge.net/DTD/sodipodi-0.dtd"
   xmlns:inkscape="http://www.inkscape.org/namespaces/inkscape"
   version="1.1"
   id="svg64"
   xml:space="preserve"
   width="449.17068"
   height="110.51467"
   viewBox="0 0 449.17068 110.51467"
   sodipodi:docname="logo.svg"
   inkscape:version="0.92.4 (unknown)"><metadata
     id="metadata70"><rdf:RDF><cc:Work
         rdf:about=""><dc:format>image/svg+xml</dc:format><dc:type
           rdf:resource="http://purl.org/dc/dcmitype/StillImage" /><dc:title></dc:title></cc:Work></rdf:RDF></metadata><defs
     id="defs68"><clipPath
       clipPathUnits="userSpaceOnUse"
       id="clipPath80"><path
         d="M 0,82.886 H 336.878 V 0 H 0 Z"
         id="path78"
         inkscape:connector-curvature="0" /></clipPath></defs><sodipodi:namedview
     pagecolor="#ffffff"
     bordercolor="#666666"
     borderopacity="1"
     objecttolerance="10"
     gridtolerance="10"
     guidetolerance="10"
     inkscape:pageopacity="0"
     inkscape:pageshadow="2"
     inkscape:window-width="1920"
     inkscape:window-height="978"
     id="namedview66"
     showgrid="false"
     inkscape:zoom="1.9469214"
     inkscape:cx="182.74293"
     inkscape:cy="48.834615"
     inkscape:window-x="0"
     inkscape:window-y="27"
     inkscape:window-maximized="1"
     inkscape:current-layer="g72" /><g
     id="g72"
     inkscape:groupmode="layer"
     inkscape:label="logo"
     transform="matrix(1.3333333,0,0,-1.3333333,0,110.51467)"><g
       id="g74"><g
         id="g76"
         clip-path="url(#clipPath80)"><g
           id="g82"
           transform="translate(198.6802,75.7521)"><path
             d="m 0,0 c 3.014,-0.467 8.065,-5.641 10.241,-7.778 10.53,-10.348 11.862,-21.878 11.862,-21.878 l -3.566,-0.811 -4.051,10.372 -20.095,-0.162 6.968,-10.695 -5.185,0.485 -23.337,29.82 c 0,0 6.257,3.888 27.163,0.647 m 44.398,-61.473 -20.737,6.453 c 1.75,0.938 3.194,2.031 4.343,3.342 -6.557,-1.477 -20.036,-2.516 -26.483,-0.99 -11.459,2.713 -31.058,17.064 -42.134,21.067 -2.629,0.95 -7.938,2.208 -12.778,3.266 0.121,-4.211 0.299,-7.155 0.299,-7.155 l -3.727,1.135 c 0,0 -0.18,2.802 -0.294,6.816 -3.629,0.76 -6.351,1.286 -6.351,1.286 v 2.917 c 0,0 2.693,-0.396 6.281,-0.981 -0.014,1.018 -0.023,2.078 -0.022,3.161 l -0.02,-0.479 -30.142,3.89 0.324,6.482 30.303,1.459 c 0.259,2.675 0.648,5.079 1.218,6.887 0.269,0.858 3.816,1.351 3.564,0.486 -0.536,-1.845 -0.899,-4.346 -1.138,-7.15 10e-4,0.007 0.002,0.014 0.004,0.02 0,0 9.539,1.373 12.479,0.324 6.806,-2.431 12.802,-11.83 12.802,-11.83 l -3.727,-6.806 -21.959,5.65 c 0.005,-0.926 0.015,-1.836 0.029,-2.715 4.747,-0.817 9.939,-1.805 12.53,-2.612 14.585,-4.537 30.636,-20.107 42.297,-23.174 6.799,-1.788 12.802,-0.972 28.096,1.1 0.372,0.664 0.691,1.373 0.951,2.136 1.495,4.381 0.61,9.584 -1.003,13.923 -1.612,4.338 -4.21,8.881 -6.848,12.684 -6.881,9.918 -14.684,19.764 -25.714,24.668 -8.897,3.955 -19.043,3.831 -28.695,2.541 -9.65,-1.29 -49.713,-8.44 -51.22,-9.138 -1.507,-0.697 -2.897,-1.758 -3.691,-3.216 -0.616,-1.13 -0.727,-2.448 -1.027,-3.7 -0.446,-1.867 -0.507,-5.994 -0.459,-9.575 l 20.817,-3.792 v -2.43 l -20.79,4.673 c 0.049,-2.238 0.127,-4.047 0.153,-4.598 1.274,-0.343 55.398,-19.28 55.398,-19.28 l 6.483,-9.723 c -15.741,7.522 -52.664,22.967 -61.671,26.778 v -1.413 l 98.396,-46.666 1.952,0.481 -1.583,4.377 -19.918,9.125 0.061,0.013 -11.64,5.288 c 6.026,-2.018 21.999,-4.598 34.815,-3.621 0.486,0.037 0.977,0.087 1.46,0.167 l 0.419,0.088 c 0.395,0.087 0.784,0.197 1.15,0.371 0.603,0.285 1.151,0.749 1.481,1.319 l 1.907,-0.626 -0.025,-0.005 3.497,-1.149 0.023,0.006 2.676,-0.879 -0.022,-0.006 9.487,-3.114 0.018,0.005 7.786,-2.558 1.952,0.483 z"
             style="fill:#ffffff;fill-opacity:1;fill-rule:nonzero;stroke:none"
             id="path84"
             inkscape:connector-curvature="0" /></g><g
           id="g86"
           transform="translate(194.0669,51.9474)"><path
             d="m 0,0 c 0,-0.851 -0.653,-1.54 -1.459,-1.54 -0.806,0 -1.458,0.689 -1.458,1.54 0,0.85 0.652,1.539 1.458,1.539 C -0.653,1.539 0,0.85 0,0"
             style="fill:#ffffff;fill-opacity:1;fill-rule:nonzero;stroke:none"
             id="path88"
             inkscape:connector-curvature="0" /></g><g
           id="g90"
           transform="translate(215.6206,53.9728)"><path
             d="m 0,0 c -0.571,0 -1.064,-0.348 -1.304,-0.852 l 0.88,-2.161 c 0.135,-0.043 0.277,-0.066 0.424,-0.066 0.805,0 1.458,0.689 1.458,1.54 C 1.458,-0.689 0.805,0 0,0"
             style="fill:#ffffff;fill-opacity:1;fill-rule:nonzero;stroke:none"
             id="path92"
             inkscape:connector-curvature="0" /></g><g
           id="g94"
           transform="translate(36.5483,71.717)"><path
             d="m 0,0 v -39.603 h -11.032 v 13.465 c -3.056,-1.018 -5.865,-1.528 -8.431,-1.528 -5.544,0 -9.778,1.33 -12.701,3.989 -2.924,2.658 -4.384,6.496 -4.384,11.513 V 0 h 11.032 v -10.919 c 0,-5.092 2.49,-7.638 7.467,-7.638 2.717,0 5.055,0.453 7.017,1.358 l 0,17.199 z"
             style="fill:#ffffff;fill-opacity:1;fill-rule:nonzero;stroke:none"
             id="path96"
             inkscape:connector-curvature="0" /></g><g
           id="g98"
           transform="translate(71.6274,61.717)"><path
             d="m 0,0 -11.964,-22.319 c -1.266,-2.393 -2.813,-4.208 -4.641,-5.446 -1.831,-1.237 -3.831,-1.856 -6.002,-1.856 -1.596,0 -3.301,0.357 -5.118,1.072 l 1.94,6.024 c 1.128,-0.33 2.09,-0.496 2.889,-0.496 0.796,0 1.505,0.179 2.124,0.537 0.619,0.357 1.189,0.921 1.711,1.691 L -30.281,0 h 8.622 L -14.935,-13.944 -7.962,0 Z"
             style="fill:#ffffff;fill-opacity:1;fill-rule:nonzero;stroke:none"
             id="path100"
             inkscape:connector-curvature="0" /></g><g
           id="g102"
           transform="translate(83.2925,61.717)"><path
             d="M 0,0 5.156,-7.839 10.271,0 h 9.49 l -9.49,-13.82 10.315,-15.1 h -9.612 l -5.818,8.54 -5.775,-8.54 h -9.406 L 0.247,-14.191 -9.365,0 Z"
             style="fill:#ffffff;fill-opacity:1;fill-rule:nonzero;stroke:none"
             id="path104"
             inkscape:connector-curvature="0" /></g><g
           id="g106"
           transform="translate(269.5483,71.717)"><path
             d="m 0,0 v -39.603 h -11.032 v 13.465 c -3.056,-1.018 -5.865,-1.528 -8.431,-1.528 -5.544,0 -9.778,1.33 -12.701,3.989 -2.924,2.658 -4.384,6.496 -4.384,11.513 V 0 h 11.032 v -10.919 c 0,-5.092 2.49,-7.638 7.467,-7.638 2.717,0 5.055,0.453 7.017,1.358 l 0,17.199 z"
             style="fill:#ffffff;fill-opacity:1;fill-rule:nonzero;stroke:none"
             id="path108"
             inkscape:connector-curvature="0" /></g><g
           id="g110"
           transform="translate(304.6274,61.717)"><path
             d="m 0,0 -11.964,-22.319 c -1.266,-2.393 -2.813,-4.208 -4.641,-5.446 -1.831,-1.237 -3.831,-1.856 -6.002,-1.856 -1.596,0 -3.301,0.357 -5.118,1.072 l 1.94,6.024 c 1.128,-0.33 2.09,-0.496 2.889,-0.496 0.796,0 1.505,0.179 2.124,0.537 0.619,0.357 1.189,0.921 1.711,1.691 L -30.281,0 h 8.622 L -14.935,-13.944 -7.962,0 Z"
             style="fill:#ffffff;fill-opacity:1;fill-rule:nonzero;stroke:none"
             id="path112"
             inkscape:connector-curvature="0" /></g><g
           id="g114"
           transform="translate(316.2925,61.717)"><path
             d="M 0,0 5.156,-7.839 10.271,0 h 9.49 l -9.49,-13.82 10.315,-15.1 h -9.612 l -5.818,8.54 -5.775,-8.54 h -9.406 L 0.247,-14.191 -9.365,0 Z"
             style="fill:#ffffff;fill-opacity:1;fill-rule:nonzero;stroke:none"
             id="path116"
             inkscape:connector-curvature="0" /></g></g></g></g></svg>