<?xml version="1.0" encoding="UTF-8" standalone="no"?>
<!-- Created with Inkscape (http://www.inkscape.org/) -->

<svg
   xmlns:dc="http://purl.org/dc/elements/1.1/"
   xmlns:cc="http://creativecommons.org/ns#"
   xmlns:rdf="http://www.w3.org/1999/02/22-rdf-syntax-ns#"
   xmlns:svg="http://www.w3.org/2000/svg"
   xmlns="http://www.w3.org/2000/svg"
   xmlns:sodipodi="http://sodipodi.sourceforge.net/DTD/sodipodi-0.dtd"
   xmlns:inkscape="http://www.inkscape.org/namespaces/inkscape"
   version="1.1"
   id="svg29"
   xml:space="preserve"
   width="512.91736"
   height="512.23065"
   viewBox="0 0 512.91736 512.23065"
   sodipodi:docname="adv-icon-4.svg"
   inkscape:version="0.92.4 (unknown)"><metadata
     id="metadata35"><rdf:RDF><cc:Work
         rdf:about=""><dc:format>image/svg+xml</dc:format><dc:type
           rdf:resource="http://purl.org/dc/dcmitype/StillImage" /><dc:title></dc:title></cc:Work></rdf:RDF></metadata><defs
     id="defs33"><clipPath
       clipPathUnits="userSpaceOnUse"
       id="clipPath45"><path
         d="M 0,384.173 H 384.688 V 0 H 0 Z"
         id="path43"
         inkscape:connector-curvature="0" /></clipPath></defs><sodipodi:namedview
     pagecolor="#ffffff"
     bordercolor="#666666"
     borderopacity="1"
     objecttolerance="10"
     gridtolerance="10"
     guidetolerance="10"
     inkscape:pageopacity="0"
     inkscape:pageshadow="2"
     inkscape:window-width="1920"
     inkscape:window-height="978"
     id="namedview31"
     showgrid="false"
     inkscape:zoom="1.5559397"
     inkscape:cx="256.45868"
     inkscape:cy="256.11533"
     inkscape:window-x="0"
     inkscape:window-y="27"
     inkscape:window-maximized="1"
     inkscape:current-layer="g37" /><g
     id="g37"
     inkscape:groupmode="layer"
     inkscape:label="adv-icon-4"
     transform="matrix(1.3333333,0,0,-1.3333333,0,512.23067)"><g
       id="g39"><g
         id="g41"
         clip-path="url(#clipPath45)"><g
           id="g47"
           transform="translate(340.0806,153.562)"><path
             d="M 0,0 C -0.616,-0.931 -0.844,-1.855 -0.738,-2.998 0.051,-11.512 0.8,-20.03 1.548,-28.548 l 0.392,-4.461 c 0.12,-1.356 0.229,-2.713 0.338,-4.07 0.181,-2.254 0.369,-4.587 0.603,-6.864 0.336,-3.265 -1.133,-5.812 -4.136,-7.172 -10.293,-4.661 -20.836,-9.484 -31.341,-14.335 -4.035,-1.863 -6.258,-2.89 -7.399,-4.028 -1.098,-1.095 -2.027,-3.052 -4.026,-7.374 -5.544,-11.995 -9.982,-21.719 -13.967,-30.603 -1.571,-3.502 -4.397,-5.155 -8.175,-4.774 -9.599,0.949 -19.165,1.797 -28.937,2.655 -1.977,0.174 -3.957,0.303 -5.944,0.434 -1.611,0.106 -3.222,0.213 -4.831,0.341 -1.619,0.126 -2.98,-0.261 -4.414,-1.263 -7.668,-5.363 -15.493,-10.768 -23.06,-15.994 l -4.343,-3 c -0.764,-0.527 -1.541,-1.036 -2.319,-1.543 -1.13,-0.736 -2.197,-1.432 -3.191,-2.177 -2.929,-2.197 -6.208,-2.229 -9.236,-0.087 -7.435,5.259 -14.817,10.383 -21.687,15.137 -1.502,1.039 -3.023,2.053 -4.566,3.081 -2.006,1.338 -4.081,2.721 -6.106,4.16 -1.806,1.282 -3.439,1.881 -5.181,1.881 -0.306,0 -0.615,-0.019 -0.93,-0.055 l -29.468,-2.867 c -0.99,-0.096 -1.981,-0.182 -2.997,-0.271 -2.091,-0.182 -4.066,-0.354 -6.04,-0.614 -4.814,-0.635 -7.124,2.128 -8.214,4.556 l -1.618,3.61 c -4.076,9.102 -8.291,18.514 -12.731,27.587 -0.665,1.357 -1.205,2.501 -1.668,3.482 -1.082,2.29 -1.622,3.41 -2.054,3.842 -0.432,0.431 -1.552,0.966 -3.851,2.042 -0.993,0.466 -2.164,1.015 -3.558,1.692 -8.668,4.212 -17.625,8.258 -26.288,12.17 l -4.734,2.14 c -4.1,1.856 -4.683,5.125 -4.451,7.54 0.828,8.576 1.662,17.75 2.705,29.746 0.168,1.945 0.294,3.955 0.418,5.929 0.101,1.615 0.202,3.229 0.327,4.842 0.11,1.425 -0.224,2.579 -1.12,3.86 -4,5.723 -7.979,11.46 -11.958,17.197 l -0.187,0.27 c -2.099,3.027 -4.199,6.054 -6.301,9.078 -0.375,0.541 -0.746,1.087 -1.117,1.632 -1.043,1.532 -2.027,2.98 -3.103,4.296 -1.44,1.762 -3.381,5.386 -0.205,9.868 3.538,4.992 7.068,10.136 10.486,15.117 l 1.704,2.483 c 1.34,1.952 2.669,3.911 3.998,5.87 2.095,3.087 4.26,6.278 6.446,9.404 1.112,1.59 1.529,3.179 1.351,5.152 -0.505,5.593 -0.981,11.189 -1.457,16.785 l -0.412,4.832 c -0.155,1.812 -0.307,3.624 -0.458,5.436 -0.353,4.233 -0.719,8.61 -1.13,12.921 -0.175,1.847 0.138,5.223 4.206,7.079 3.554,1.623 7.095,3.276 10.637,4.93 l 0.198,0.092 c 6.893,3.22 14.021,6.548 21.177,9.611 5.039,2.157 8.095,5.202 10.219,10.181 2.835,6.646 5.92,13.276 8.912,19.707 1.702,3.655 3.63,7.797 5.42,11.765 1.68,3.726 4.542,5.399 8.483,4.975 7.992,-0.86 16.143,-1.636 24.026,-2.387 l 6.689,-0.638 c 0.92,-0.088 1.842,-0.157 2.765,-0.224 1.337,-0.1 2.72,-0.202 4.123,-0.364 2.795,-0.323 5.092,0.281 7.452,1.956 6.8,4.829 13.763,9.649 20.521,14.327 l 5.703,3.949 c 0.845,0.586 1.706,1.149 2.568,1.712 1.112,0.726 2.262,1.476 3.309,2.25 2.843,2.1 6.035,2.102 8.986,0.004 7.919,-5.633 16.015,-11.306 23.876,-16.813 l 4.5,-3.153 c 0.296,-0.207 0.607,-0.396 0.918,-0.584 l 0.114,-0.07 c 0.754,-0.458 1.609,-0.977 2.457,-1.689 2.014,-1.691 4.442,-2.228 8.384,-1.845 4.849,0.471 9.701,0.915 14.553,1.359 l 0.133,0.012 c 7.04,0.644 14.32,1.311 21.457,2.052 4.336,0.452 7.302,-1.265 9.078,-5.243 2.19,-4.906 4.481,-9.882 6.697,-14.694 l 0.088,-0.191 c 2.674,-5.805 5.439,-11.807 8.083,-17.808 1.715,-3.893 4.09,-6.257 7.938,-7.908 6.43,-2.757 12.861,-5.73 19.138,-8.631 4.506,-2.083 9.166,-4.238 13.789,-6.292 5.369,-2.385 4.936,-6.989 4.794,-8.502 C 2.227,113.794 1.691,107.692 1.153,101.569 0.56,94.813 -0.054,87.828 -0.713,80.899 -0.899,78.956 -0.49,77.433 0.653,75.805 4.237,70.695 7.818,65.583 11.399,60.472 l 7.915,-11.299 c 0.408,-0.581 0.811,-1.166 1.215,-1.751 1.078,-1.564 2.096,-3.041 3.19,-4.444 2.185,-2.806 2.223,-5.97 0.106,-8.911 C 18.078,26.083 12.059,17.622 4.883,7.44 3.842,5.964 2.874,4.453 1.849,2.853 1.237,1.898 0.625,0.944 0,0 m 44.527,39.357 c -0.793,1.224 -1.582,2.452 -2.37,3.678 -2.266,3.529 -4.61,7.178 -7.042,10.655 -3.301,4.72 -6.732,9.487 -10.05,14.097 l -0.06,0.083 c -2.741,3.808 -5.481,7.615 -8.189,11.446 -1.198,1.697 -1.817,4.038 -1.617,6.109 0.804,8.293 1.646,16.582 2.492,24.923 0.677,6.671 1.353,13.341 2.011,20.013 0.235,2.385 -1.707,5.835 -3.849,6.838 -8.079,3.781 -16.344,7.547 -24.338,11.188 l -2.946,1.342 c -1.843,0.84 -3.695,1.662 -5.547,2.483 -2.873,1.274 -5.844,2.592 -8.764,3.974 -1.865,0.881 -3.554,2.586 -4.409,4.449 l -1.878,4.092 c -5.342,11.637 -10.866,23.67 -16.083,35.623 -1.257,2.879 -3.252,4.604 -6.672,5.768 l -0.119,0.025 c -0.347,0.028 -1.021,-0.046 -1.739,-0.131 -0.302,-0.036 -0.602,-0.072 -0.895,-0.101 -5.463,-0.55 -10.927,-1.108 -16.39,-1.665 -9.181,-0.938 -18.362,-1.875 -27.546,-2.775 -2.545,-0.247 -4.729,1.076 -5.548,1.658 -7.013,4.986 -14.011,9.993 -21.01,14.999 l -0.546,0.392 c -4.682,3.349 -9.364,6.699 -14.05,10.042 -2.315,1.653 -3.632,2.196 -4.873,2.016 l -0.14,-0.021 c -1.554,-0.229 -2.996,-0.468 -3.574,-0.87 -14.24,-9.891 -25.053,-17.582 -35.06,-24.936 -3.557,-2.614 -7.204,-3.545 -11.819,-3.016 -8.964,1.029 -18.062,1.949 -26.861,2.839 -3.404,0.344 -6.809,0.688 -10.213,1.039 l -0.533,0.055 c -0.716,0.073 -1.432,0.146 -2.146,0.233 -4.585,0.567 -7.581,-1.048 -9.431,-5.083 -6.295,-13.732 -12.398,-27.328 -18.056,-39.975 -1.028,-2.299 -2.654,-3.922 -4.969,-4.961 -4.77,-2.14 -9.533,-4.299 -14.295,-6.459 l -0.355,-0.161 c -8.374,-3.796 -17.032,-7.721 -25.605,-11.485 -2.471,-1.086 -3.702,-3.095 -4.994,-6.2 l -0.049,-0.119 0.041,-0.383 c 0.35,-3.435 0.693,-6.873 1.043,-10.387 1.003,-10.049 2.039,-20.44 3.24,-30.659 0.454,-3.862 0.458,-8.962 -3.583,-14.155 -5.976,-7.68 -11.691,-15.841 -17.23,-23.75 l -0.536,-0.767 c -1.947,-2.779 -3.715,-5.642 -5.594,-8.684 -0.593,-0.961 -1.187,-1.922 -1.785,-2.879 l -0.077,-0.122 v -1.505 l 0.067,-0.115 c 0.576,-1 1.142,-2.007 1.708,-3.013 1.702,-3.028 3.31,-5.888 5.169,-8.576 3.825,-5.534 7.826,-11.107 11.744,-16.564 2.862,-3.987 5.822,-8.109 8.699,-12.201 1.294,-1.841 1.959,-4.399 1.736,-6.677 -0.999,-10.237 -2.075,-20.638 -3.115,-30.695 l -0.025,-0.234 c -0.483,-4.671 -0.966,-9.342 -1.444,-14.014 -0.168,-1.639 1.961,-5.389 3.452,-6.078 2.575,-1.192 5.146,-2.396 7.717,-3.6 l 0.474,-0.222 c 8.88,-4.159 18.064,-8.46 27.232,-12.204 7.069,-2.886 11.471,-7.269 14.271,-14.212 3.086,-7.652 6.639,-15.326 10.091,-22.785 1.65,-3.563 3.356,-7.248 4.997,-10.901 1.671,-3.719 4.18,-5.234 8.151,-4.916 7.111,0.577 14.349,1.29 21.349,1.978 l 5.555,0.545 c 2.136,0.207 4.27,0.43 6.421,0.655 3.667,0.383 7.458,0.779 11.218,1.091 2.042,0.167 4.302,-0.489 6.061,-1.736 7.819,-5.546 15.614,-11.127 23.408,-16.708 l 1.22,-0.874 c 3.607,-2.582 7.214,-5.164 10.822,-7.742 1.89,-1.35 3.449,-1.931 5.196,-1.931 0.031,0 0.063,0 0.094,0 1.745,0.026 3.208,0.547 4.893,1.742 8.728,6.187 17.449,12.385 26.157,18.6 1.299,0.928 2.586,1.872 3.927,2.855 1.91,1.402 3.886,2.85 5.894,4.237 1.695,1.169 3.835,1.751 5.722,1.569 12.586,-1.232 26.851,-2.629 40.991,-4.214 4.51,-0.504 6.856,-0.551 8.868,1.2 0.863,0.753 1.895,1.702 2.204,2.37 6.537,14.101 12.86,28.078 18.776,41.187 1.052,2.332 2.724,3.987 5.11,5.058 16.383,7.356 28.869,13.023 40.487,18.374 3.048,1.403 4.794,4.539 4.448,7.989 -0.557,5.543 -1.123,11.085 -1.69,16.628 l -0.076,0.748 c -0.926,9.053 -1.851,18.106 -2.737,27.164 -0.183,1.865 0.44,4.007 1.666,5.73 2.602,3.657 5.226,7.3 7.85,10.943 l 0.19,0.263 c 4.387,6.089 8.925,12.386 13.274,18.645 1.74,2.506 3.236,5.212 4.852,8.136 0.514,0.928 1.028,1.857 1.55,2.779 l 0.065,0.115 v 0.677 z"
             style="fill:#fff;fill-opacity:1;fill-rule:nonzero;stroke:none"
             id="path49"
             inkscape:connector-curvature="0" /></g><g
           id="g51"
           transform="translate(88.5278,212.2725)"><path
             d="M 0,0 V -16.975 H 29.728 V -28.902 H 0 V -52.299 H -14.864 V 11.928 H 33.673 V 0 Z"
             style="fill:#fff;fill-opacity:1;fill-rule:nonzero;stroke:none"
             id="path53"
             inkscape:connector-curvature="0" /></g><g
           id="g55"
           transform="translate(88.5278,212.2725)"><path
             d="M 0,0 V -16.975 H 29.728 V -28.902 H 0 V -52.299 H -14.864 V 11.928 H 33.673 V 0 Z"
             style="fill:none;fill:#fff;stroke-width:1;stroke-linecap:butt;stroke-linejoin:miter;stroke-miterlimit:10;stroke-dasharray:none;stroke-opacity:1"
             id="path57"
             inkscape:connector-curvature="0" /></g><g
           id="g59"
           transform="translate(169.4526,209.1987)"><path
             d="m 0,0 c -2.325,1.927 -5.72,2.89 -10.185,2.89 h -12.111 v -22.388 h 12.111 c 4.465,0 7.86,0.978 10.185,2.936 2.324,1.957 3.486,4.71 3.486,8.258 C 3.486,-4.695 2.324,-1.927 0,0 M 3.762,-49.225 -8.625,-31.333 H -9.359 -22.296 V -49.225 H -37.16 v 64.226 h 27.801 c 5.689,0 10.628,-0.949 14.818,-2.844 4.189,-1.897 7.416,-4.588 9.68,-8.074 2.262,-3.487 3.395,-7.616 3.395,-12.387 0,-4.771 -1.147,-8.885 -3.441,-12.341 -2.294,-3.456 -5.551,-6.101 -9.771,-7.936 l 14.405,-20.644 z"
             style="fill:#fff;fill-opacity:1;fill-rule:nonzero;stroke:none"
             id="path61"
             inkscape:connector-curvature="0" /></g><g
           id="g63"
           transform="translate(169.4526,209.1987)"><path
             d="m 0,0 c -2.325,1.927 -5.72,2.89 -10.185,2.89 h -12.111 v -22.388 h 12.111 c 4.465,0 7.86,0.978 10.185,2.936 2.324,1.957 3.486,4.71 3.486,8.258 C 3.486,-4.695 2.324,-1.927 0,0 Z M 3.762,-49.225 -8.625,-31.333 H -9.359 -22.296 V -49.225 H -37.16 v 64.226 h 27.801 c 5.689,0 10.628,-0.949 14.818,-2.844 4.189,-1.897 7.416,-4.588 9.68,-8.074 2.262,-3.487 3.395,-7.616 3.395,-12.387 0,-4.771 -1.147,-8.885 -3.441,-12.341 -2.294,-3.456 -5.551,-6.101 -9.771,-7.936 l 14.405,-20.644 z"
             style="fill:none;fill:#fff;stroke-width:1;stroke-linecap:butt;stroke-linejoin:miter;stroke-miterlimit:10;stroke-dasharray:none;stroke-opacity:1"
             id="path65"
             inkscape:connector-curvature="0" /></g><g
           id="g67"
           transform="translate(249.459,171.9014)"><path
             d="M 0,0 V -11.928 H -49.729 V 52.299 H -1.193 V 40.371 H -34.958 V 26.424 h 29.82 v -11.56 h -29.82 V 0 Z"
             style="fill:#fff;fill-opacity:1;fill-rule:nonzero;stroke:none"
             id="path69"
             inkscape:connector-curvature="0" /></g><g
           id="g71"
           transform="translate(249.459,171.9014)"><path
             d="M 0,0 V -11.928 H -49.729 V 52.299 H -1.193 V 40.371 H -34.958 V 26.424 h 29.82 v -11.56 h -29.82 V 0 Z"
             style="fill:none;fill:#fff;stroke-width:1;stroke-linecap:butt;stroke-linejoin:miter;stroke-miterlimit:10;stroke-dasharray:none;stroke-opacity:1"
             id="path73"
             inkscape:connector-curvature="0" /></g><g
           id="g75"
           transform="translate(311.0239,171.9014)"><path
             d="M 0,0 V -11.928 H -49.729 V 52.299 H -1.193 V 40.371 H -34.958 V 26.424 h 29.82 v -11.56 h -29.82 V 0 Z"
             style="fill:#fff;fill-opacity:1;fill-rule:nonzero;stroke:none"
             id="path77"
             inkscape:connector-curvature="0" /></g><g
           id="g79"
           transform="translate(311.0239,171.9014)"><path
             d="M 0,0 V -11.928 H -49.729 V 52.299 H -1.193 V 40.371 H -34.958 V 26.424 h 29.82 v -11.56 h -29.82 V 0 Z"
             style="fill:none;fill:#fff;stroke-width:1;stroke-linecap:butt;stroke-linejoin:miter;stroke-miterlimit:10;stroke-dasharray:none;stroke-opacity:1"
             id="path81"
             inkscape:connector-curvature="0" /></g></g></g></g></svg>