<?xml version="1.0" encoding="UTF-8" standalone="no"?>
<!-- Created with Inkscape (http://www.inkscape.org/) -->

<svg
   xmlns:dc="http://purl.org/dc/elements/1.1/"
   xmlns:cc="http://creativecommons.org/ns#"
   xmlns:rdf="http://www.w3.org/1999/02/22-rdf-syntax-ns#"
   xmlns:svg="http://www.w3.org/2000/svg"
   xmlns="http://www.w3.org/2000/svg"
   xmlns:sodipodi="http://sodipodi.sourceforge.net/DTD/sodipodi-0.dtd"
   xmlns:inkscape="http://www.inkscape.org/namespaces/inkscape"
   version="1.1"
   id="svg109"
   xml:space="preserve"
   width="493.43201"
   height="493.43201"
   viewBox="0 0 493.43201 493.43201"
   sodipodi:docname="adv-icon-2.svg"
   inkscape:version="0.92.4 (unknown)"><metadata
     id="metadata115"><rdf:RDF><cc:Work
         rdf:about=""><dc:format>image/svg+xml</dc:format><dc:type
           rdf:resource="http://purl.org/dc/dcmitype/StillImage" /><dc:title></dc:title></cc:Work></rdf:RDF></metadata><defs
     id="defs113"><clipPath
       clipPathUnits="userSpaceOnUse"
       id="clipPath125"><path
         d="M 0,370.074 H 370.074 V 0 H 0 Z"
         id="path123"
         inkscape:connector-curvature="0" /></clipPath></defs><sodipodi:namedview
     pagecolor="#ffffff"
     bordercolor="#666666"
     borderopacity="1"
     objecttolerance="10"
     gridtolerance="10"
     guidetolerance="10"
     inkscape:pageopacity="0"
     inkscape:pageshadow="2"
     inkscape:window-width="643"
     inkscape:window-height="480"
     id="namedview111"
     showgrid="false"
     inkscape:zoom="0.47828272"
     inkscape:cx="246.716"
     inkscape:cy="246.716"
     inkscape:window-x="120"
     inkscape:window-y="27"
     inkscape:window-maximized="0"
     inkscape:current-layer="g117" /><g
     id="g117"
     inkscape:groupmode="layer"
     inkscape:label="adv-icon-2"
     transform="matrix(1.3333333,0,0,-1.3333333,0,493.432)"><g
       id="g119"><g
         id="g121"
         clip-path="url(#clipPath125)"><g
           id="g127"
           transform="translate(352.9946,184.9521)"><path
             d="m 0,0 c -0.062,-44.989 -17.699,-87.279 -49.662,-119.081 -31.627,-31.468 -73.467,-48.799 -117.815,-48.801 l -0.622,0.001 c -92.775,0.34 -168.058,75.773 -167.817,168.152 0.241,92.513 75.544,167.778 167.861,167.778 h 0.126 c 44.85,-0.033 87.036,-17.549 118.787,-49.322 C -17.39,86.952 0.062,44.788 0,0 m 16.751,11.958 c -0.237,2.621 -0.475,5.242 -0.755,7.858 -3.459,32.333 -14.663,61.811 -33.301,87.615 -27.546,38.136 -64.839,62.83 -110.843,73.395 -9.217,2.116 -19,3.45 -29.077,3.964 -0.7,0.036 -1.334,0.142 -1.954,0.244 l -16.965,0.088 -3.675,-0.327 c -2.629,-0.239 -5.257,-0.478 -7.881,-0.754 -26.816,-2.823 -51.66,-11.024 -73.842,-24.374 -45.086,-27.134 -74.267,-66.822 -86.732,-117.962 -2.356,-9.665 -3.833,-20.063 -4.391,-30.906 -0.036,-0.693 -0.14,-1.321 -0.256,-2.017 l -0.074,-16.884 0.33,-3.711 c 0.242,-2.672 0.484,-5.346 0.769,-8.015 2.939,-27.624 11.713,-53.394 26.08,-76.591 22.446,-36.247 54.077,-62.217 94.016,-77.186 16.864,-6.321 34.801,-10.029 53.308,-11.022 0.676,-0.037 1.318,-0.151 1.861,-0.248 l 16.978,-0.077 3.711,0.343 c 2.576,0.236 5.152,0.472 7.725,0.74 24.593,2.559 47.673,9.751 68.598,21.376 41.969,23.313 71.231,58.091 86.974,103.366 5.346,15.372 8.511,31.815 9.409,48.87 0.034,0.641 0.144,1.223 0.242,1.737 l 0.073,16.791 z"
             style="fill:#fff;fill-opacity:1;fill-rule:nonzero;stroke:none"
             id="path129"
             inkscape:connector-curvature="0" /></g><g
           id="g131"
           transform="translate(102.8735,177.8896)"><path
             d="M 0,0 66.823,-63.426 170.605,85.508"
             style="fill:none;stroke:#fff;stroke-width:21;stroke-linecap:butt;stroke-linejoin:miter;stroke-miterlimit:10;stroke-dasharray:none;stroke-opacity:1"
             id="path133"
             inkscape:connector-curvature="0" /></g></g></g></g></svg>