<?xml version="1.0" encoding="UTF-8" standalone="no"?>
<!-- Created with Inkscape (http://www.inkscape.org/) -->

<svg
   xmlns:dc="http://purl.org/dc/elements/1.1/"
   xmlns:cc="http://creativecommons.org/ns#"
   xmlns:rdf="http://www.w3.org/1999/02/22-rdf-syntax-ns#"
   xmlns:svg="http://www.w3.org/2000/svg"
   xmlns="http://www.w3.org/2000/svg"
   xmlns:sodipodi="http://sodipodi.sourceforge.net/DTD/sodipodi-0.dtd"
   xmlns:inkscape="http://www.inkscape.org/namespaces/inkscape"
   version="1.1"
   id="svg135"
   xml:space="preserve"
   width="451.99066"
   height="520.7453"
   viewBox="0 0 451.99066 520.7453"
   sodipodi:docname="adv-icon-1.svg"
   inkscape:version="0.92.4 (unknown)"><metadata
     id="metadata141"><rdf:RDF><cc:Work
         rdf:about=""><dc:format>image/svg+xml</dc:format><dc:type
           rdf:resource="http://purl.org/dc/dcmitype/StillImage" /><dc:title></dc:title></cc:Work></rdf:RDF></metadata><defs
     id="defs139"><clipPath
       clipPathUnits="userSpaceOnUse"
       id="clipPath151"><path
         d="M 0,390.559 H 338.993 V 0 H 0 Z"
         id="path149"
         inkscape:connector-curvature="0" /></clipPath></defs><sodipodi:namedview
     pagecolor="#ffffff"
     bordercolor="#666666"
     borderopacity="1"
     objecttolerance="10"
     gridtolerance="10"
     guidetolerance="10"
     inkscape:pageopacity="0"
     inkscape:pageshadow="2"
     inkscape:window-width="643"
     inkscape:window-height="480"
     id="namedview137"
     showgrid="false"
     inkscape:zoom="0.4531966"
     inkscape:cx="225.99533"
     inkscape:cy="260.37265"
     inkscape:window-x="143"
     inkscape:window-y="52"
     inkscape:window-maximized="0"
     inkscape:current-layer="g143" /><g
     id="g143"
     inkscape:groupmode="layer"
     inkscape:label="adv-icon-1"
     transform="matrix(1.3333333,0,0,-1.3333333,0,520.74533)"><g
       id="g145"><g
         id="g147"
         clip-path="url(#clipPath151)"><g
           id="g153"
           transform="translate(275.2937,63.6537)"><path
             d="m 0,0 c -28.443,-28.437 -66.079,-44.107 -105.976,-44.124 h -0.065 c -39.898,0 -77.476,15.631 -105.831,44.022 -28.366,28.404 -43.985,66.065 -43.982,106.044 0.004,40.097 15.58,77.747 43.856,106.015 28.275,28.265 65.935,43.833 106.035,43.833 h 0.004 C -23.226,255.788 44.091,188.558 44.101,105.924 44.105,66.055 28.443,28.437 0,0 m 58.467,64.61 c 11.228,45.774 4.367,89.543 -20.392,130.092 -3.14,5.144 -6.789,10.17 -10.316,15.031 -1.636,2.254 -3.327,4.584 -4.944,6.893 l -2.396,3.423 21.583,21.754 3.531,-3.05 c 0.611,-0.528 1.212,-1.067 1.812,-1.605 1.208,-1.085 2.349,-2.108 3.515,-2.975 2.532,-1.882 5.827,-1.872 7.834,0.024 2.05,1.937 3.055,5.347 1.103,7.479 -7.795,8.518 -16.449,17.243 -25.725,25.933 -1.807,1.695 -5.508,1.043 -7.153,-0.66 -1.692,-1.749 -3.169,-4.565 -0.587,-8.041 1.046,-1.408 2.207,-2.76 3.437,-4.191 0.576,-0.671 1.149,-1.338 1.706,-2.007 l 1.602,-1.92 -0.557,-2.352 c -0.096,-0.689 -0.324,-2.194 -1.57,-3.478 -1.253,-1.291 -2.526,-2.567 -3.8,-3.843 -2.528,-2.531 -4.915,-4.922 -7.171,-7.463 -3.025,-3.408 -7.986,-6.273 -14.43,-0.592 -24.345,21.458 -53.047,34.848 -85.31,39.799 l -0.392,0.06 c -11.57,1.774 -13.334,3.787 -13.49,15.389 l -0.006,0.48 c -0.09,6.612 3.287,10.033 10.038,10.168 4.301,0.085 9.176,0.183 12.762,1.693 5.553,2.34 8.718,8.809 7.365,15.049 -1.415,6.513 -7.043,10.947 -14.006,11.033 -17.628,0.216 -35.904,0.229 -55.872,0.04 -8.677,-0.082 -14.707,-5.806 -14.663,-13.919 0.044,-8.223 5.849,-13.719 14.79,-14.002 2.345,-0.074 4.701,-0.056 7.431,-0.036 1.355,0.01 2.78,0.02 4.309,0.02 h 5 v -5 c 0,-1.208 -0.021,-2.342 -0.04,-3.427 -0.039,-2.139 -0.072,-3.988 0.072,-5.73 0.537,-6.48 -2.802,-10.412 -9.401,-11.069 -5.242,-0.522 -10.818,-1.462 -16.571,-2.793 -48.899,-11.323 -86.326,-39.275 -111.24,-83.078 -20.237,-35.581 -26.306,-74.568 -18.04,-115.878 8.042,-40.189 28.811,-73.71 61.73,-99.629 26.109,-20.557 55.67,-32.386 87.859,-35.158 48.631,-4.187 91.666,9.707 127.897,41.297 26.625,23.215 44.354,52.23 52.696,86.239"
             style="fill:#fff;fill-opacity:1;fill-rule:nonzero;stroke:none"
             id="path155"
             inkscape:connector-curvature="0" /></g><g
           id="g157"
           transform="translate(162.6238,147.7953)"><path
             d="m 0,0 c 8.344,-3.279 16.829,-0.648 21.611,6.7 4.261,6.547 2.733,16.26 -3.408,21.653 -3.634,3.188 -5.176,6.74 -5.155,11.877 0.035,8.463 -0.008,17.081 -0.05,25.415 -0.085,16.745 -0.172,34.062 0.37,51.119 0.209,6.594 -2.407,11.473 -5.987,17.091 -1.17,-1.619 -2.335,-3.177 -3.583,-4.681 C 1.51,126.418 0.595,123.367 0.639,118.643 0.775,103.886 0.771,88.894 0.767,74.394 0.763,63.519 0.759,52.274 0.815,41.221 0.844,35.58 -0.812,31.523 -4.72,27.656 -6.994,25.405 -8.866,22.11 -9.606,19.057 -11.533,11.101 -7.403,2.907 0,0"
             style="fill:#fff;fill-opacity:1;fill-rule:nonzero;stroke:none"
             id="path159"
             inkscape:connector-curvature="0" /></g><path
           d="m 185.529,336.508 h -29.5 v 29.5 h 29.5 z"
           style="fill:#fff;fill-opacity:1;fill-rule:nonzero;stroke:none"
           id="path161"
           inkscape:connector-curvature="0" /><g
           id="g163"
           transform="translate(294.1697,277.5087)"><path
             d="M 0,0 -11.216,9.961 15.04,39.524 26.256,29.563 Z"
             style="fill:#fff;fill-opacity:1;fill-rule:nonzero;stroke:none"
             id="path165"
             inkscape:connector-curvature="0" /></g></g></g></g></svg>