<?xml version="1.0" encoding="UTF-8" standalone="no"?>
<!-- Created with Inkscape (http://www.inkscape.org/) -->

<svg
   xmlns:dc="http://purl.org/dc/elements/1.1/"
   xmlns:cc="http://creativecommons.org/ns#"
   xmlns:rdf="http://www.w3.org/1999/02/22-rdf-syntax-ns#"
   xmlns:svg="http://www.w3.org/2000/svg"
   xmlns="http://www.w3.org/2000/svg"
   xmlns:sodipodi="http://sodipodi.sourceforge.net/DTD/sodipodi-0.dtd"
   xmlns:inkscape="http://www.inkscape.org/namespaces/inkscape"
   version="1.1"
   id="svg83"
   xml:space="preserve"
   width="495.99466"
   height="495.99466"
   viewBox="0 0 495.99466 495.99466"
   sodipodi:docname="adv-icon-3.svg"
   inkscape:version="0.92.4 (unknown)"><metadata
     id="metadata89"><rdf:RDF><cc:Work
         rdf:about=""><dc:format>image/svg+xml</dc:format><dc:type
           rdf:resource="http://purl.org/dc/dcmitype/StillImage" /><dc:title></dc:title></cc:Work></rdf:RDF></metadata><defs
     id="defs87"><clipPath
       clipPathUnits="userSpaceOnUse"
       id="clipPath99"><path
         d="M 0,371.996 H 371.996 V 0 H 0 Z"
         id="path97"
         inkscape:connector-curvature="0" /></clipPath></defs><sodipodi:namedview
     pagecolor="#ffffff"
     bordercolor="#666666"
     borderopacity="1"
     objecttolerance="10"
     gridtolerance="10"
     guidetolerance="10"
     inkscape:pageopacity="0"
     inkscape:pageshadow="2"
     inkscape:window-width="643"
     inkscape:window-height="480"
     id="namedview85"
     showgrid="false"
     inkscape:zoom="0.47581157"
     inkscape:cx="247.99733"
     inkscape:cy="247.99733"
     inkscape:window-x="0"
     inkscape:window-y="27"
     inkscape:window-maximized="0"
     inkscape:current-layer="g91" /><g
     id="g91"
     inkscape:groupmode="layer"
     inkscape:label="adv-icon-3"
     transform="matrix(1.3333333,0,0,-1.3333333,0,495.99467)"><g
       id="g93"><g
         id="g95"
         clip-path="url(#clipPath99)"><g
           id="g101"
           transform="translate(186.1577,17.4541)"><path
             d="m 0,0 c -44.551,0.002 -86.627,17.423 -118.578,49.055 -32.233,31.912 -49.989,74.322 -49.996,119.417 -0.008,44.871 17.57,87.155 49.495,119.063 31.893,31.874 74.141,49.428 118.96,49.428 h 0.116 c 44.969,-0.031 87.297,-17.702 119.19,-49.758 31.871,-32.036 49.315,-74.195 49.119,-118.709 V 168.47 C 168.499,124.03 151.074,81.936 119.242,49.947 87.216,17.764 44.869,0.025 0,0 m 7.086,-17.081 c 2.16,0.196 4.347,0.349 6.463,0.497 4.662,0.325 9.472,0.661 14.159,1.458 8.868,1.508 17.298,3.409 25.057,5.649 23.595,6.812 45.406,18.425 64.827,34.514 28.828,23.879 49.033,54.005 60.055,89.541 3.297,10.629 5.638,21.986 6.957,33.756 0.32,2.856 0.467,5.755 0.609,8.558 0.075,1.48 0.149,2.959 0.249,4.437 0.03,0.44 0.119,0.908 0.213,1.402 0.044,0.23 0.086,0.45 0.124,0.67 l 0.039,9.875 -0.022,0.314 c -0.044,0.297 -0.094,0.595 -0.146,0.892 -0.106,0.616 -0.206,1.195 -0.225,1.741 -0.848,23.842 -6.316,46.869 -16.25,68.443 -18.564,40.31 -48.199,70.846 -88.083,90.76 -16.414,8.196 -33.486,13.648 -50.741,16.205 -5.818,0.861 -11.765,1.363 -17.516,1.848 -2.714,0.228 -5.429,0.457 -8.137,0.723 -0.384,0.038 -0.761,0.108 -1.138,0.179 -0.259,0.05 -0.454,0.086 -0.639,0.119 l -5.504,0.042 -0.247,-0.018 c -0.301,-0.037 -0.687,-0.09 -1.072,-0.144 -0.785,-0.109 -1.528,-0.211 -2.261,-0.238 -41.821,-1.578 -79.329,-15.754 -111.478,-42.136 -31.113,-25.529 -52.128,-58.365 -62.462,-97.594 -2.947,-11.188 -4.739,-22.597 -5.327,-33.91 -0.115,-2.209 -0.303,-4.464 -0.486,-6.645 -0.09,-1.068 -0.174,-2.081 -0.253,-3.092 l -0.009,-4.9 0.025,-0.331 c 0.04,-0.263 0.088,-0.527 0.136,-0.79 0.099,-0.538 0.189,-1.031 0.203,-1.485 0.609,-19.953 4.316,-39.398 11.017,-57.798 7.594,-20.849 18.744,-40.001 33.138,-56.924 18.808,-22.112 41.854,-39.191 68.497,-50.764 14.651,-6.364 29.892,-10.722 45.301,-12.952 4.676,-0.676 9.451,-1.032 14.069,-1.377 2.257,-0.168 4.482,-0.334 6.702,-0.535 0.371,-0.034 0.77,-0.117 1.192,-0.205 0.179,-0.038 0.357,-0.076 0.536,-0.11 l 10.452,-0.048 0.135,0.026 c 0.223,0.042 0.444,0.09 0.665,0.138 0.431,0.093 0.818,0.177 1.176,0.209"
             style="fill:#fff;fill-opacity:1;fill-rule:nonzero;stroke:none"
             id="path103"
             inkscape:connector-curvature="0" /></g><g
           id="g105"
           transform="translate(297.3428,147.3608)"><path
             d="m 0,0 c 0.293,6.208 -1.873,12.378 -6.098,17.372 l -0.793,0.937 0.761,0.962 c 5.787,7.324 7.507,15.617 5.114,24.649 -1.544,5.828 -5.133,10.493 -10.972,14.264 l -0.765,0.494 0.085,0.906 c 0.07,0.747 0.188,1.495 0.314,2.286 0.106,0.672 0.208,1.316 0.286,1.962 0.964,8.067 -0.432,14.179 -4.393,19.233 -5.396,6.885 -12.681,10.656 -21.653,11.209 -4.332,0.266 -9.089,0.16 -14.544,-0.323 -6.966,-0.619 -14.045,-1.577 -20.698,-2.507 -3.124,-0.435 -6.284,-0.947 -9.339,-1.442 -5.125,-0.831 -10.369,-1.68 -15.537,-2.194 -2.658,-0.264 -4.251,-0.036 -5.015,0.717 -0.767,0.756 -1.02,2.366 -0.797,5.065 0.32,3.874 1.409,7.704 3.33,11.709 l 1.325,2.754 c 1.986,4.119 4.025,8.347 5.85,12.601 3.791,8.838 7.483,19.411 6.118,30.825 -1.282,10.722 -6.217,18.998 -14.667,24.597 -5.552,3.679 -11.301,5.097 -17.088,4.22 -7.525,-1.144 -12.577,-5.99 -14.61,-14.015 -0.693,-2.735 -1.07,-5.552 -1.435,-8.277 -0.227,-1.702 -0.441,-3.3 -0.728,-4.922 -2.19,-12.372 -7.401,-22.686 -15.486,-30.657 -5.246,-5.17 -10.966,-9.908 -16.856,-14.71 -7.323,-5.972 -14.92,-12.631 -20.865,-20.843 -1.173,-1.622 -2.319,-3.263 -3.464,-4.905 -1.946,-2.789 -3.953,-5.666 -6.059,-8.368 -3.582,-4.599 -6.701,-8.183 -9.817,-11.282 -0.742,-0.738 -1.945,-1.204 -3.219,-1.697 -0.79,-0.306 -1.604,-0.62 -2.38,-1.027 -0.836,-0.438 -1.721,-1.559 -1.755,-2.677 -0.067,-2.195 -0.058,-4.415 -0.05,-6.562 l 0.005,-2.212 c 0,-3.04 0.047,-4.42 1.165,-5.3 1.118,-0.881 2.472,-0.602 5.43,0.111 l 0.168,0.041 c 6.323,1.522 11.916,5.104 16.625,10.644 4.251,5.004 8.402,10.383 12.689,16.447 4.876,6.894 11.623,15.678 20.597,22.462 4.471,3.381 9.034,7.172 14.795,12.295 13.931,12.389 22.644,28.211 25.898,47.027 0.248,1.44 0.453,2.902 0.652,4.315 0.286,2.048 0.557,3.983 0.959,5.929 l 0.379,1.841 1.711,-0.779 c 4.277,-1.946 7.305,-4.829 9.001,-8.568 1.832,-4.039 1.972,-8.449 0.467,-14.748 -2.047,-8.566 -5.766,-16.269 -9.704,-24.424 l -0.157,-0.326 c -0.509,-1.053 -1.018,-2.107 -1.521,-3.163 -3.997,-8.373 -5.439,-15.758 -4.539,-23.238 1.049,-8.729 7.177,-15.68 15.612,-17.708 5.524,-1.328 10.988,-0.533 15.808,0.168 4.235,0.617 8.465,1.261 12.696,1.905 8.205,1.249 16.676,2.539 25.026,3.592 4.632,0.585 9.493,0.624 14.443,0.115 2.912,-0.299 5.14,-1.39 6.622,-3.241 1.557,-1.945 2.181,-4.651 1.804,-7.824 -0.461,-3.88 -0.893,-7.674 -1.116,-11.452 -0.22,-3.724 1.739,-6.736 5.373,-8.262 0.195,-0.081 0.393,-0.155 0.592,-0.229 0.197,-0.073 0.355,-0.132 0.51,-0.198 3.456,-1.483 5.814,-4.216 6.468,-7.499 0.647,-3.244 -0.464,-6.626 -3.048,-9.278 -0.642,-0.659 -1.439,-1.221 -2.282,-1.817 -0.779,-0.55 -1.585,-1.12 -2.326,-1.808 l -0.149,-0.138 c -1.308,-1.213 -2.79,-2.587 -3.504,-4.356 -1.772,-4.388 0.419,-9.014 5.21,-11.001 3.37,-1.397 5.623,-3.92 6.181,-6.923 0.549,-2.954 -0.564,-5.927 -3.134,-8.374 -1.636,-1.558 -3.885,-3.013 -6.685,-4.325 -2.735,-1.281 -4.646,-3.343 -5.381,-5.806 -0.721,-2.416 -0.273,-5.118 1.262,-7.606 0.886,-1.436 1.958,-3.331 2.389,-5.248 1.728,-7.682 0.262,-9.614 -5.68,-12.27 -3.075,-1.374 -6.587,-2.487 -11.055,-3.502 -11.029,-2.509 -23.432,-3.655 -38.977,-3.623 -13.117,0.034 -26.816,0.46 -41.877,1.302 -8.544,0.478 -17.122,1.711 -25.418,2.903 -9.524,1.369 -18.887,4.32 -27.94,7.174 l -2.783,0.875 c -9.888,3.099 -19.91,4.695 -29.787,4.743 h -0.016 c -0.9,0 -1.925,-0.107 -2.68,-0.883 -0.766,-0.787 -0.833,-1.86 -0.805,-2.706 0.111,-3.425 0.111,-6.781 -0.002,-9.974 -0.03,-0.854 0.034,-1.938 0.802,-2.748 0.774,-0.816 1.882,-0.939 2.761,-0.954 9.181,-0.164 16.977,-1.415 23.834,-3.824 20.196,-7.097 41.846,-11.15 66.19,-12.39 7.122,-0.363 14.322,-0.55 21.286,-0.732 l 0.268,-0.007 c 3.12,-0.082 6.239,-0.163 9.358,-0.26 13.27,0.088 28.639,0.401 43.827,2.99 6.782,1.157 15.587,3.078 23.544,7.716 7.35,4.283 11.608,10.216 12.656,17.635 0.719,5.092 0.236,9.883 -1.435,14.238 l -0.437,1.139 1.025,0.66 c 1.043,0.671 1.967,1.46 2.733,2.143 C -3.712,-13.792 -0.333,-7.058 0,0"
             style="fill:#fff;fill-opacity:1;fill-rule:nonzero;stroke:none"
             id="path107"
             inkscape:connector-curvature="0" /></g></g></g></g></svg>