<?xml version="1.0" encoding="UTF-8" standalone="no"?>
<!-- Created with Inkscape (http://www.inkscape.org/) -->

<svg
   xmlns:dc="http://purl.org/dc/elements/1.1/"
   xmlns:cc="http://creativecommons.org/ns#"
   xmlns:rdf="http://www.w3.org/1999/02/22-rdf-syntax-ns#"
   xmlns:svg="http://www.w3.org/2000/svg"
   xmlns="http://www.w3.org/2000/svg"
   xmlns:sodipodi="http://sodipodi.sourceforge.net/DTD/sodipodi-0.dtd"
   xmlns:inkscape="http://www.inkscape.org/namespaces/inkscape"
   version="1.1"
   id="svg268"
   xml:space="preserve"
   width="467.09732"
   height="645.37598"
   viewBox="0 0 467.09732 645.37598"
   sodipodi:docname="map-icon.svg"
   inkscape:version="0.92.4 (unknown)"><metadata
     id="metadata274"><rdf:RDF><cc:Work
         rdf:about=""><dc:format>image/svg+xml</dc:format><dc:type
           rdf:resource="http://purl.org/dc/dcmitype/StillImage" /><dc:title></dc:title></cc:Work></rdf:RDF></metadata><defs
     id="defs272"><clipPath
       clipPathUnits="userSpaceOnUse"
       id="clipPath284"><path
         d="M 0,484.032 H 350.323 V 0 H 0 Z"
         id="path282"
         inkscape:connector-curvature="0" /></clipPath></defs><sodipodi:namedview
     pagecolor="#ffffff"
     bordercolor="#666666"
     borderopacity="1"
     objecttolerance="10"
     gridtolerance="10"
     guidetolerance="10"
     inkscape:pageopacity="0"
     inkscape:pageshadow="2"
     inkscape:window-width="643"
     inkscape:window-height="480"
     id="namedview270"
     showgrid="false"
     inkscape:zoom="0.36567832"
     inkscape:cx="233.54866"
     inkscape:cy="322.68799"
     inkscape:window-x="518"
     inkscape:window-y="192"
     inkscape:window-maximized="0"
     inkscape:current-layer="g276" /><g
     id="g276"
     inkscape:groupmode="layer"
     inkscape:label="map-icon"
     transform="matrix(1.3333333,0,0,-1.3333333,0,645.376)"><g
       id="g278"><g
         id="g280"
         clip-path="url(#clipPath284)"><g
           id="g286"
           transform="translate(175.1304,232.5276)"><path
             d="m 0,0 c -42.131,0.051 -76.307,34.269 -76.253,76.348 0.053,42.099 34.339,76.267 76.43,76.166 42.098,-0.101 76.264,-34.42 76.138,-76.477 C 76.189,34.091 41.923,-0.05 0,0 M 172.815,107.027 C 155.451,202.187 65.036,265.475 -30.274,248.855 -112.257,234.56 -173.478,163.193 -175.11,80.085 c -0.348,-17.774 3.751,-34.729 9.288,-51.404 9.96,-29.994 23.827,-58.249 38.96,-85.892 32.726,-59.778 70.515,-98.304 110.578,-153.353 5.302,-7.286 10.755,-14.461 16.344,-21.963 0.76,0.918 1.239,1.447 1.666,2.016 44.416,59.153 85.837,102.286 121.931,166.919 15.717,28.146 29.91,57.011 40.903,87.399 9.8,27.093 13.486,54.559 8.255,83.22"
             style="fill:#ff3000;fill-opacity:1;fill-rule:nonzero;stroke:none"
             id="path288"
             inkscape:connector-curvature="0" /></g></g></g></g></svg>