<?xml version="1.0" encoding="UTF-8" standalone="no"?>
<!-- Created with Inkscape (http://www.inkscape.org/) -->

<svg
   xmlns:dc="http://purl.org/dc/elements/1.1/"
   xmlns:cc="http://creativecommons.org/ns#"
   xmlns:rdf="http://www.w3.org/1999/02/22-rdf-syntax-ns#"
   xmlns:svg="http://www.w3.org/2000/svg"
   xmlns="http://www.w3.org/2000/svg"
   xmlns:sodipodi="http://sodipodi.sourceforge.net/DTD/sodipodi-0.dtd"
   xmlns:inkscape="http://www.inkscape.org/namespaces/inkscape"
   version="1.1"
   id="svg208"
   xml:space="preserve"
   width="1066.6667"
   height="1066.6667"
   viewBox="0 0 1066.6667 1066.6667"
   sodipodi:docname="search-icon.svg"
   inkscape:version="0.92.4 (unknown)"><metadata
     id="metadata214"><rdf:RDF><cc:Work
         rdf:about=""><dc:format>image/svg+xml</dc:format><dc:type
           rdf:resource="http://purl.org/dc/dcmitype/StillImage" /><dc:title></dc:title></cc:Work></rdf:RDF></metadata><defs
     id="defs212"><clipPath
       clipPathUnits="userSpaceOnUse"
       id="clipPath224"><path
         d="M 0,800 H 800 V 0 H 0 Z"
         id="path222"
         inkscape:connector-curvature="0" /></clipPath></defs><sodipodi:namedview
     pagecolor="#ffffff"
     bordercolor="#666666"
     borderopacity="1"
     objecttolerance="10"
     gridtolerance="10"
     guidetolerance="10"
     inkscape:pageopacity="0"
     inkscape:pageshadow="2"
     inkscape:window-width="643"
     inkscape:window-height="480"
     id="namedview210"
     showgrid="false"
     inkscape:zoom="0.22124998"
     inkscape:cx="533.33337"
     inkscape:cy="533.33337"
     inkscape:window-x="0"
     inkscape:window-y="27"
     inkscape:window-maximized="0"
     inkscape:current-layer="g216" /><g
     id="g216"
     inkscape:groupmode="layer"
     inkscape:label="search-icon"
     transform="matrix(1.3333333,0,0,-1.3333333,0,1066.6667)"><g
       id="g218"><g
         id="g220"
         clip-path="url(#clipPath224)"><g
           id="g226"
           transform="translate(84.9981,456.3047)"><path
             d="M 0,0 C -1.032,-141.502 113.174,-260.375 258.429,-261.166 403.247,-261.954 519.503,-145.381 519.878,-1.889 520.261,144.756 399.976,260.713 256.327,258.769 115.5,256.863 0.269,141.553 0,0 m -84.998,-18.305 v 34 c 0.3,1.772 0.655,3.536 0.893,5.316 2.2,16.471 3.293,33.176 6.752,49.377 15.64,73.266 51.605,135.113 107.322,185.113 53.421,47.939 116.006,76.414 187.296,85.477 8.556,1.087 17.157,1.82 25.737,2.717 h 34 c 1.452,-0.292 2.894,-0.779 4.357,-0.849 31.312,-1.496 61.762,-7.596 91.217,-18.132 87.531,-31.306 152.883,-88.39 195.254,-171.033 30.287,-59.075 41.668,-122.079 35.332,-188.278 -4.323,-45.155 -16.954,-87.789 -38.447,-127.673 -7.947,-14.749 -17.193,-28.798 -26.073,-43.542 0.301,-0.352 0.989,-1.272 1.794,-2.077 42.87,-42.847 85.752,-85.682 128.63,-128.522 6.243,-6.237 12.302,-12.672 18.75,-18.688 12.647,-11.803 24.351,-24.121 27.185,-42.206 v -13 c -0.279,-0.571 -0.714,-1.116 -0.815,-1.717 -3.448,-20.691 -15.41,-34.259 -34.839,-41.478 -3.335,-1.239 -6.89,-1.884 -10.346,-2.805 h -12 c -14.524,2.364 -25.983,9.784 -36.278,20.185 -43.363,43.81 -87.079,87.271 -130.631,130.894 -8.678,8.693 -17.202,17.543 -25.779,26.302 -2.226,-1.542 -3.725,-2.576 -5.218,-3.617 -71.033,-49.571 -149.722,-70.189 -235.852,-61.591 -44.577,4.45 -87.024,17.019 -126.057,39.071 -105.781,59.76 -166.472,149.925 -180.494,270.985 -0.608,5.252 -1.129,10.514 -1.69,15.771"
             style="fill:#fff;fill-opacity:1;fill-rule:nonzero;stroke:none"
             id="path228"
             inkscape:connector-curvature="0" /></g></g></g></g></svg>