<?xml version="1.0" encoding="UTF-8" standalone="no"?>
<!-- Created with Inkscape (http://www.inkscape.org/) -->

<svg
   xmlns:dc="http://purl.org/dc/elements/1.1/"
   xmlns:cc="http://creativecommons.org/ns#"
   xmlns:rdf="http://www.w3.org/1999/02/22-rdf-syntax-ns#"
   xmlns:svg="http://www.w3.org/2000/svg"
   xmlns="http://www.w3.org/2000/svg"
   xmlns:sodipodi="http://sodipodi.sourceforge.net/DTD/sodipodi-0.dtd"
   xmlns:inkscape="http://www.inkscape.org/namespaces/inkscape"
   version="1.1"
   id="svg71"
   width="131.32594"
   height="131.23447"
   viewBox="0 0 131.32594 131.23446"
   sodipodi:docname="soc-icon-3.svg"
   inkscape:version="0.92.4 (unknown)">
  <path
     style="stroke-width:0.95999998"
     d="M 49.595668,129.83563 C 22.006608,123.14205 1.699058,98.134569 0.12179803,68.911641 -0.52978197,56.839318 1.379228,47.977401 7.148548,36.292504 18.634948,13.028509 43.096088,-1.3014817 68.940038,0.09340157 93.805088,1.4354508 115.05275,15.580176 125.5372,37.770573 c 4.18405,8.855544 5.77226,16.61473 5.78865,28.280363 0.0266,18.914296 -5.65675,32.586145 -19.15857,46.087944 -13.684992,13.68501 -27.231302,19.23896 -46.567952,19.09278 -5.81861,-0.044 -13.02026,-0.6722 -16.00366,-1.39603 z m 34.70437,-6.06505 c 18.389392,-5.91793 33.747682,-21.41114 39.630802,-39.978939 1.75199,-5.52948 2.11613,-8.84593 2.05546,-18.72 -0.0656,-10.664952 -0.37163,-12.801029 -2.75129,-19.2 -9.21852,-24.7888 -31.069612,-40.430416 -56.694972,-40.5838221 -11.35581,-0.067982 -19.08522,1.71765 -28.22501,6.5204741 -11.85792,6.23116 -20.69642,15.090723 -26.59148,26.654855 -4.77412,9.365221 -6.47327,16.793687 -6.41567,28.048493 0.12021,23.48718 12.93619,43.601529 34.45395,54.074549 4.95486,2.41161 7.82973,3.36182 16.21821,5.36047 4.7031,1.12056 22.27058,-0.2293 28.32,-2.17608 z M 48.813818,96.814751 c -1.66159,-3.104706 -1.20213,-4.11689 4.47132,-9.850167 3.00581,-3.037503 5.27381,-5.659094 5.04,-5.825758 -0.2338,-0.166665 -2.70478,-1.337275 -5.49105,-2.601358 -3.60908,-1.63738 -5.23717,-2.980566 -5.66136,-4.670665 -1.25618,-5.005023 3.62865,-7.401369 9.20702,-4.516679 5.09352,2.633959 10.52929,2.829883 17.09001,0.615984 7.76072,-2.618838 9.66339,-2.558883 10.98704,0.346208 1.56477,3.434296 -0.93381,6.678785 -6.84003,8.881999 l -4.82104,1.79841 5.27215,5.206664 c 5.37683,5.310032 6.64528,8.795135 4.12016,11.320252 -2.5266,2.526599 -6.01024,1.25665 -11.33045,-4.130481 l -5.21686,-5.28248 -5.33818,5.28248 c -5.80431,5.743742 -9.63657,6.8864 -11.48873,3.425591 z m 10.04622,-31.628612 c -4.5675,-2.097406 -6.61432,-4.238297 -8.60339,-8.998799 -2.05132,-4.909494 -1.84565,-9.17837 0.68339,-14.184536 5.45093,-10.789976 19.47236,-12.441364 27.54738,-3.244421 6.01457,6.850209 5.79519,15.459198 -0.57355,22.50864 -5.15845,5.709787 -12.06204,7.129761 -19.05383,3.919116 z m 12,-10.674498 c 4.29498,-4.294982 1.07683,-11.52 -5.13121,-11.52 -3.94283,0 -6.70879,2.770581 -6.70879,6.72 0,6.060444 7.52776,9.112238 11.84,4.8 z"
     id="path143"
     inkscape:connector-curvature="0" />
</svg>
