<?xml version="1.0" encoding="UTF-8" standalone="no"?>
<!-- Created with Inkscape (http://www.inkscape.org/) -->

<svg
   xmlns:dc="http://purl.org/dc/elements/1.1/"
   xmlns:cc="http://creativecommons.org/ns#"
   xmlns:rdf="http://www.w3.org/1999/02/22-rdf-syntax-ns#"
   xmlns:svg="http://www.w3.org/2000/svg"
   xmlns="http://www.w3.org/2000/svg"
   xmlns:sodipodi="http://sodipodi.sourceforge.net/DTD/sodipodi-0.dtd"
   xmlns:inkscape="http://www.inkscape.org/namespaces/inkscape"
   version="1.1"
   id="svg91"
   width="131.32594"
   height="131.23447"
   viewBox="0 0 131.32594 131.23446"
   sodipodi:docname="soc-icon-1.svg"
   inkscape:version="0.92.4 (unknown)">

  <path
     style="stroke-width:0.95999998"
     d="M 49.595671,129.83563 C 22.006601,123.14205 1.6990509,98.134568 0.12180088,68.91164 -0.52978912,56.839317 1.3792309,47.9774 7.1485509,36.292503 18.634941,13.028508 43.096091,-1.3014817 68.940041,0.09340158 93.805091,1.4354508 115.05275,15.580175 125.5372,37.770572 c 4.18405,8.855544 5.77226,16.61473 5.78865,28.280363 0.0266,18.914296 -5.65675,32.586145 -19.15857,46.087945 -13.684989,13.68501 -27.231299,19.23896 -46.567949,19.09278 -5.81861,-0.044 -13.02026,-0.6722 -16.00366,-1.39603 z m 34.70437,-6.06505 c 18.389389,-5.91793 33.747679,-21.41114 39.630799,-39.97894 1.75199,-5.52948 2.11613,-8.84593 2.05546,-18.72 -0.0656,-10.664952 -0.37163,-12.801029 -2.75129,-19.2 C 114.01649,21.08284 92.165391,5.441225 66.540041,5.2878189 c -11.35581,-0.067982 -19.08523,1.71765 -28.22502,6.5204731 -11.85792,6.23116 -20.69641,15.090723 -26.59148,26.654855 -4.7741201,9.365221 -6.4732701,16.793687 -6.4156601,28.048493 0.1202,23.48718 12.9361901,43.60153 34.4539501,54.07455 4.95486,2.41161 7.82973,3.36182 16.21821,5.36047 4.70309,1.12056 22.27057,-0.2293 28.32,-2.17608 z M 57.777211,85.988366 c -5.12031,-1.649345 -12.03285,-7.660655 -16.87708,-14.676726 -6.50292,-9.418407 -12.87806,-22.346033 -11.63349,-23.590608 0.54264,-0.542634 3.9542,-0.85496 7.60856,-0.696556 l 6.62484,0.287164 3.88896,7.454676 c 4.46423,8.557398 6.38176,10.805939 8.5166,9.986728 1.16264,-0.446148 1.51444,-2.019432 1.51444,-6.772759 0,-7.049507 -0.59096,-9.228645 -2.50271,-9.228645 -2.59095,0 -1.29566,-2.035365 2.23375,-3.510048 3.95547,-1.652703 10.87525,-1.323353 13.22843,0.629612 1.05527,0.8758 1.44053,3.197018 1.44053,8.679467 0,8.267133 0.52625,10.520969 2.45659,10.520969 1.50542,0 5.79979,-6.010923 9.43044,-13.2 l 2.54531,-5.04 h 7.69396 c 6.148859,0 7.811659,0.306705 8.280019,1.527258 0.79198,2.063861 -1.44437,6.450343 -6.770789,13.280541 -2.43954,3.12829 -4.43553,6.271187 -4.43553,6.984215 0,0.713029 2.61958,4.112278 5.8213,7.553886 4.120229,4.428934 5.733269,6.876476 5.520009,8.375785 -0.27914,1.962474 -0.88515,2.138847 -8.237449,2.3974 l -7.93614,0.279086 -5.11662,-4.839086 c -2.81414,-2.661497 -5.62557,-4.839085 -6.24762,-4.839085 -1.35079,0 -3.00348,3.99627 -3.00348,7.262496 0,2.21702 -0.28453,2.332452 -5.52,2.2395 -3.036,-0.0539 -6.87128,-0.533275 -8.52283,-1.06527 z"
     id="path101"
     inkscape:connector-curvature="0" />
</svg>
