<?xml version="1.0" encoding="UTF-8" standalone="no"?>
<!-- Created with Inkscape (http://www.inkscape.org/) -->

<svg
   xmlns:dc="http://purl.org/dc/elements/1.1/"
   xmlns:cc="http://creativecommons.org/ns#"
   xmlns:rdf="http://www.w3.org/1999/02/22-rdf-syntax-ns#"
   xmlns:svg="http://www.w3.org/2000/svg"
   xmlns="http://www.w3.org/2000/svg"
   xmlns:sodipodi="http://sodipodi.sourceforge.net/DTD/sodipodi-0.dtd"
   xmlns:inkscape="http://www.inkscape.org/namespaces/inkscape"
   version="1.1"
   id="svg61"
   width="131.32599"
   height="131.207"
   viewBox="0 0 131.32598 131.207"
   sodipodi:docname="soc-icon-4.svg"
   inkscape:version="0.92.4 (unknown)">
  <path
     style="stroke-width:0.95999998"
     d="M 49.595675,129.83563 C 22.006608,123.14205 1.6990576,98.134569 0.12179762,68.911641 -0.52978238,56.839318 1.3792376,47.977401 7.1485516,36.292504 18.634949,13.028509 43.096092,-1.3014817 68.940041,0.09340157 93.805096,1.4354508 115.05275,15.580176 125.5372,37.770573 c 4.18569,8.859015 5.77226,16.615426 5.78865,28.299373 0.0171,12.173224 -1.50231,18.737443 -6.87952,29.721695 -5.646,11.533309 -17.09298,22.980289 -28.62629,28.626289 -4.487999,2.19704 -10.734761,4.64692 -13.881694,5.44417 -7.124039,1.80481 -24.85446,1.7903 -32.342671,-0.0265 z m 34.704366,-6.06505 c 18.389389,-5.91793 33.747679,-21.41114 39.630799,-39.978939 1.75199,-5.52948 2.11613,-8.84593 2.05546,-18.72 -0.0656,-10.664952 -0.37163,-12.801029 -2.75129,-19.2 C 114.01365,21.075206 92.259302,5.5109493 66.540041,5.3089535 55.181636,5.2197455 47.476762,6.9939377 38.315028,11.808293 26.457109,18.039453 17.618611,26.899016 11.723549,38.463148 6.9379926,47.8508 5.2503656,55.253324 5.3290526,66.511641 c 0.108899,15.581052 5.2534924,28.804486 15.6187384,40.145719 8.230046,9.00498 21.03563,16.32603 33.11225,18.93054 6.582419,1.41959 23.304321,0.41467 30.24,-1.81732 z M 46.400027,104.0589 C 45.139019,102.79789 43.840372,100.31389 43.514143,98.538902 43.187915,96.76391 43.051285,80.76589 43.210521,62.98775 l 0.28952,-32.32389 2.327341,-2.47611 2.327342,-2.476109 h 17.636295 c 17.444955,0 17.661859,0.02556 19.992659,2.356363 l 2.356363,2.356364 v 34.558465 c 0,23.282554 -0.347774,35.321747 -1.065861,36.897777 -1.771719,3.8885 -4.646299,4.47103 -22.062947,4.47103 -15.922787,0 -16.374057,-0.0556 -18.611206,-2.29274 z m 34.461498,-4.04997 c 1.181465,-0.453369 1.518516,-2.051481 1.518516,-7.199998 v -6.617291 h -16.32 -16.32 v 6.56 c 0,3.608003 0.288,6.848003 0.64,7.2 0.799925,0.799929 28.410972,0.851819 30.481484,0.0573 z M 60.141779,97.115462 c -2.324302,-0.688042 -2.870016,-2.958401 -1.129462,-4.698954 2.147022,-2.147021 12.664593,-1.61936 14.12633,0.70871 0.757919,1.207118 0.729191,1.962626 -0.1064,2.798221 -1.19149,1.191485 -10.107134,2.015943 -12.890468,1.192023 z M 81.420041,60.271641 v -20.16 h -15.36 -15.36 v 20.16 20.16 h 15.36 15.36 z m 0.72096,-27.12 c -0.293155,-0.881584 -4.644832,-1.269842 -16.4,-1.463212 -13.811018,-0.227188 -16.00096,-0.06295 -16.00096,1.2 0,1.253848 2.346594,1.463212 16.4,1.463212 12.692821,0 16.309798,-0.271257 16.00096,-1.2 z"
     id="path164"
     inkscape:connector-curvature="0" />
</svg>
