<?xml version="1.0" encoding="UTF-8" standalone="no"?>
<!-- Created with Inkscape (http://www.inkscape.org/) -->

<svg
   xmlns:dc="http://purl.org/dc/elements/1.1/"
   xmlns:cc="http://creativecommons.org/ns#"
   xmlns:rdf="http://www.w3.org/1999/02/22-rdf-syntax-ns#"
   xmlns:svg="http://www.w3.org/2000/svg"
   xmlns="http://www.w3.org/2000/svg"
   xmlns:sodipodi="http://sodipodi.sourceforge.net/DTD/sodipodi-0.dtd"
   xmlns:inkscape="http://www.inkscape.org/namespaces/inkscape"
   version="1.1"
   id="svg81"
   width="131.38966"
   height="131.3989"
   viewBox="0 0 131.38966 131.39889"
   sodipodi:docname="soc-icon-2.svg"
   inkscape:version="0.92.4 (unknown)">

  <path
     style="stroke-width:0.95999998"
     d="M 49.65935,130.02753 C 12.00596,120.89217 -9.8779804,78.437372 4.3995196,42.223542 14.18265,17.409369 39.25526,0.0671612 65.44418,2.1130128e-4 90.60452,-0.0641097 114.15648,14.561231 125.12903,37.06341 c 4.57803,9.388519 6.2436,17.156593 6.26049,29.198437 0.0171,12.173224 -1.50231,18.737443 -6.87952,29.721695 -5.646,11.533308 -17.09298,22.980288 -28.62629,28.626288 -4.488,2.19704 -10.73476,4.64692 -13.88169,5.44417 -7.12404,1.80481 -24.85446,1.7903 -32.34267,-0.0265 z m 34.70436,-6.06505 c 18.38939,-5.91793 33.74768,-21.41114 39.6308,-39.978938 1.75199,-5.52948 2.11613,-8.84593 2.05546,-18.72 -0.0656,-10.664952 -0.37163,-12.801029 -2.75129,-19.2 C 114.08016,21.274742 92.22907,5.6331266 66.60371,5.4797205 55.24791,5.4117385 47.51849,7.1973705 38.3787,12.000194 26.52078,18.231354 17.68228,27.090917 11.78722,38.655049 7.0016596,48.042701 5.3140396,55.445225 5.3927196,66.703542 c 0.1089,15.581052 5.2535004,28.804486 15.6187404,40.145718 8.23005,9.00498 21.03563,16.32603 33.11225,18.93054 6.58242,1.41959 23.30432,0.41467 30.24,-1.81732 z M 43.84342,99.834668 c -4.43,-1.335398 -8.58471,-4.927816 -10.45049,-9.036152 -1.56514,-3.44635 -1.78967,-6.531569 -1.80813,-24.845808 -0.023,-22.782745 0.37734,-24.990014 5.38068,-29.668093 4.55024,-4.254441 6.87163,-4.621073 29.25897,-4.621073 24.1692,0 26.51944,0.589889 31.33819,7.865626 2.63737,3.982118 2.6415,4.015505 2.9493,23.865066 0.20285,13.081761 -0.0749,21.299975 -0.81226,24.038536 -1.41122,5.240888 -6.90796,10.867002 -11.99761,12.280007 -4.40584,1.223153 -39.8783,1.321743 -43.85865,0.121891 z M 87.7891,92.658091 c 5.49697,-2.296782 6.17461,-5.252404 6.17461,-26.931388 0,-28.252565 0.91557,-27.343161 -27.52843,-27.343161 -22.06875,0 -24.45716,0.440452 -26.78356,4.939224 -1.70034,3.288097 -1.99807,42.009712 -0.34674,45.095258 0.5617,1.049542 2.3977,2.747528 4.08,3.7733 2.75594,1.680417 4.93867,1.865396 22.04957,1.86863 14.50804,0.0028 19.78484,-0.328169 22.35455,-1.401863 z M 56.12745,86.352662 C 51.24118,83.914414 49.14199,81.954471 46.39381,77.26471 41.63528,69.144297 42.49919,58.935106 48.5423,51.875094 53.49661,46.087096 58.56101,43.741996 66.199,43.69905 c 5.38819,-0.0303 7.00451,0.390614 11.01031,2.867205 6.98126,4.316186 10.33606,9.645576 10.81595,17.182079 0.21657,3.401069 -0.13551,7.717688 -0.79162,9.705729 -1.56054,4.728479 -7.21014,10.881566 -11.98993,13.058443 -5.20357,2.369888 -14.19737,2.294685 -19.11626,-0.159844 z m 16.38537,-6.344218 c 6.84098,-3.246257 10.46194,-11.638153 8.1042,-18.782181 -0.59921,-1.815624 -2.57947,-4.7453 -4.40059,-6.510392 -2.74547,-2.661019 -4.21753,-3.284424 -8.61707,-3.649268 -6.79045,-0.563117 -10.54591,1.002276 -14.06758,5.863808 -2.15419,2.973769 -2.76807,4.86434 -2.76807,8.524841 0,11.97661 11.27703,19.522518 21.74911,14.553192 z M 83.59571,48.751542 c -0.6336,-0.6336 -1.152,-2.3464 -1.152,-3.806223 0,-4.805114 6.37207,-5.99944 8.70925,-1.632386 2.20731,4.124394 -4.23513,8.760726 -7.55725,5.438609 z"
     id="path122"
     inkscape:connector-curvature="0" />
</svg>
